<svg width="68" height="77" viewBox="0 0 68 77" fill="none" xmlns="http://www.w3.org/2000/svg">
<path d="M42.5 27.6818C42.2576 25.5303 41.2576 23.8636 39.5 22.6818C37.7424 21.4848 35.5303 20.8864 32.8636 20.8864C30.9545 20.8864 29.303 21.1894 27.9091 21.7955C26.5152 22.3864 25.4318 23.2045 24.6591 24.25C23.9015 25.2803 23.5227 26.4545 23.5227 27.7727C23.5227 28.8788 23.7803 29.8333 24.2955 30.6364C24.8258 31.4394 25.5152 32.1136 26.3636 32.6591C27.2273 33.1894 28.1515 33.6364 29.1364 34C30.1212 34.3485 31.0682 34.6364 31.9773 34.8636L36.5227 36.0455C38.0076 36.4091 39.5303 36.9015 41.0909 37.5227C42.6515 38.1439 44.0985 38.9621 45.4318 39.9773C46.7652 40.9924 47.8409 42.25 48.6591 43.75C49.4924 45.25 49.9091 47.0455 49.9091 49.1364C49.9091 51.7727 49.2273 54.1136 47.8636 56.1591C46.5152 58.2045 44.553 59.8182 41.9773 61C39.4167 62.1818 36.3182 62.7727 32.6818 62.7727C29.197 62.7727 26.1818 62.2197 23.6364 61.1136C21.0909 60.0076 19.0985 58.4394 17.6591 56.4091C16.2197 54.3636 15.4242 51.9394 15.2727 49.1364H22.3182C22.4545 50.8182 23 52.2197 23.9545 53.3409C24.9242 54.447 26.1591 55.2727 27.6591 55.8182C29.1742 56.3485 30.8333 56.6136 32.6364 56.6136C34.6212 56.6136 36.3864 56.303 37.9318 55.6818C39.4924 55.0455 40.7197 54.1667 41.6136 53.0455C42.5076 51.9091 42.9545 50.5833 42.9545 49.0682C42.9545 47.6894 42.5606 46.5606 41.7727 45.6818C41 44.803 39.947 44.0758 38.6136 43.5C37.2955 42.9242 35.803 42.4167 34.1364 41.9773L28.6364 40.4773C24.9091 39.4621 21.9545 37.9697 19.7727 36C17.6061 34.0303 16.5227 31.4242 16.5227 28.1818C16.5227 25.5 17.25 23.1591 18.7045 21.1591C20.1591 19.1591 22.1288 17.6061 24.6136 16.5C27.0985 15.3788 29.9015 14.8182 33.0227 14.8182C36.1742 14.8182 38.9545 15.3712 41.3636 16.4773C43.7879 17.5833 45.697 19.1061 47.0909 21.0455C48.4849 22.9697 49.2121 25.1818 49.2727 27.6818H42.5Z" fill="white"/>
<path d="M45.1576 51.014C39.1491 57.0226 32.4691 61.187 26.5455 63.0776C20.5944 64.9768 15.5548 64.5447 12.6307 61.6207C9.70671 58.6966 9.27453 53.657 11.1738 47.7059C13.0643 41.7822 17.2288 35.1023 23.2373 29.0937C29.2459 23.0852 35.9258 18.9208 41.8495 17.0302C47.8006 15.1309 52.8402 15.5631 55.7642 18.4871C58.6883 21.4112 59.1204 26.4508 57.2212 32.4019C55.3306 38.3255 51.1662 45.0055 45.1576 51.014Z" stroke="white"/>
<path d="M45.1576 29.0937C51.1662 35.1023 55.3306 41.7822 57.2212 47.7059C59.1204 53.657 58.6883 58.6966 55.7642 61.6207C52.8402 64.5447 47.8006 64.9768 41.8495 63.0776C35.9258 61.187 29.2459 57.0226 23.2373 51.014C17.2288 45.0055 13.0644 38.3255 11.1738 32.4019C9.27454 26.4508 9.70671 21.4112 12.6307 18.4871C15.5548 15.5631 20.5944 15.1309 26.5455 17.0302C32.4691 18.9208 39.1491 23.0852 45.1576 29.0937Z" stroke="white"/>
<circle cx="33.5" cy="48.5" r="1.5" fill="white"/>
<circle cx="33.5" cy="28.5" r="1.5" fill="white"/>
</svg>
