<svg width="69" height="77" viewBox="0 0 69 77" fill="none" xmlns="http://www.w3.org/2000/svg">
<path d="M42.5 27.6818C42.2576 25.5303 41.2576 23.8636 39.5 22.6818C37.7424 21.4848 35.5303 20.8864 32.8636 20.8864C30.9545 20.8864 29.303 21.1894 27.9091 21.7955C26.5152 22.3864 25.4318 23.2045 24.6591 24.25C23.9015 25.2803 23.5227 26.4545 23.5227 27.7727C23.5227 28.8788 23.7803 29.8333 24.2955 30.6364C24.8258 31.4394 25.5152 32.1136 26.3636 32.6591C27.2273 33.1894 28.1515 33.6364 29.1364 34C30.1212 34.3485 31.0682 34.6364 31.9773 34.8636L36.5227 36.0455C38.0076 36.4091 39.5303 36.9015 41.0909 37.5227C42.6515 38.1439 44.0985 38.9621 45.4318 39.9773C46.7652 40.9924 47.8409 42.25 48.6591 43.75C49.4924 45.25 49.9091 47.0455 49.9091 49.1364C49.9091 51.7727 49.2273 54.1136 47.8636 56.1591C46.5152 58.2045 44.553 59.8182 41.9773 61C39.4167 62.1818 36.3182 62.7727 32.6818 62.7727C29.197 62.7727 26.1818 62.2197 23.6364 61.1136C21.0909 60.0076 19.0985 58.4394 17.6591 56.4091C16.2197 54.3636 15.4242 51.9394 15.2727 49.1364H22.3182C22.4545 50.8182 23 52.2197 23.9545 53.3409C24.9242 54.447 26.1591 55.2727 27.6591 55.8182C29.1742 56.3485 30.8333 56.6136 32.6364 56.6136C34.6212 56.6136 36.3864 56.303 37.9318 55.6818C39.4924 55.0455 40.7197 54.1667 41.6136 53.0455C42.5076 51.9091 42.9545 50.5833 42.9545 49.0682C42.9545 47.6894 42.5606 46.5606 41.7727 45.6818C41 44.803 39.947 44.0758 38.6136 43.5C37.2955 42.9242 35.803 42.4167 34.1364 41.9773L28.6364 40.4773C24.9091 39.4621 21.9545 37.9697 19.7727 36C17.6061 34.0303 16.5227 31.4242 16.5227 28.1818C16.5227 25.5 17.25 23.1591 18.7045 21.1591C20.1591 19.1591 22.1288 17.6061 24.6136 16.5C27.0985 15.3788 29.9015 14.8182 33.0227 14.8182C36.1742 14.8182 38.9545 15.3712 41.3636 16.4773C43.7879 17.5833 45.697 19.1061 47.0909 21.0455C48.4849 22.9697 49.2121 25.1818 49.2727 27.6818H42.5Z" fill="white"/>
<path d="M44.1607 51.9276C37.6513 57.3896 30.6338 60.956 24.5679 62.323C18.474 63.6964 13.4912 62.8267 10.8331 59.6589C8.17508 56.4912 8.18378 51.4331 10.5945 45.6702C12.9941 39.9338 17.7249 33.6422 24.2343 28.1802C30.7436 22.7182 37.7611 19.1518 43.827 17.7848C49.921 16.4114 54.9038 17.2811 57.5618 20.4489C60.2199 23.6166 60.2112 28.6747 57.8005 34.4376C55.4008 40.174 50.6701 46.4656 44.1607 51.9276Z" stroke="white"/>
<path d="M44.1607 28.1802C50.6701 33.6422 55.4008 39.9338 57.8005 45.6702C60.2112 51.4331 60.2199 56.4912 57.5618 59.6589C54.9038 62.8267 49.921 63.6964 43.827 62.323C37.7611 60.956 30.7436 57.3896 24.2343 51.9276C17.7249 46.4656 12.9941 40.174 10.5945 34.4376C8.18378 28.6747 8.17508 23.6166 10.8331 20.4489C13.4912 17.2811 18.474 16.4114 24.5679 17.7848C30.6338 19.1518 37.6513 22.7182 44.1607 28.1802Z" stroke="white"/>
</svg>
